<?xml version="1.0" encoding="utf-8"?>
<svg xmlns="http://www.w3.org/2000/svg" xmlns:xlink="http://www.w3.org/1999/xlink" width="600" height="400" viewBox="0 0 2400 1600">
<defs>
  <clipPath id="clip350">
    <rect x="0" y="0" width="2400" height="1600"/>
  </clipPath>
</defs>
<path clip-path="url(#clip350)" d="M0 1600 L2400 1600 L2400 0 L0 0  Z" fill="#ffffff" fill-rule="evenodd" fill-opacity="1"/>
<defs>
  <clipPath id="clip351">
    <rect x="480" y="0" width="1681" height="1600"/>
  </clipPath>
</defs>
<path clip-path="url(#clip350)" d="M86.9921 1505.26 L2352.76 1505.26 L2352.76 47.2441 L86.9921 47.2441  Z" fill="#ffffff" fill-rule="evenodd" fill-opacity="1"/>
<defs>
  <clipPath id="clip352">
    <rect x="86" y="47" width="2267" height="1459"/>
  </clipPath>
</defs>
<polyline clip-path="url(#clip352)" style="stroke:#000000; stroke-linecap:round; stroke-linejoin:round; stroke-width:2; stroke-opacity:0.1; fill:none" points="151.118,1505.26 151.118,47.2441 "/>
<polyline clip-path="url(#clip352)" style="stroke:#000000; stroke-linecap:round; stroke-linejoin:round; stroke-width:2; stroke-opacity:0.1; fill:none" points="685.496,1505.26 685.496,47.2441 "/>
<polyline clip-path="url(#clip352)" style="stroke:#000000; stroke-linecap:round; stroke-linejoin:round; stroke-width:2; stroke-opacity:0.1; fill:none" points="1219.87,1505.26 1219.87,47.2441 "/>
<polyline clip-path="url(#clip352)" style="stroke:#000000; stroke-linecap:round; stroke-linejoin:round; stroke-width:2; stroke-opacity:0.1; fill:none" points="1754.25,1505.26 1754.25,47.2441 "/>
<polyline clip-path="url(#clip352)" style="stroke:#000000; stroke-linecap:round; stroke-linejoin:round; stroke-width:2; stroke-opacity:0.1; fill:none" points="2288.63,1505.26 2288.63,47.2441 "/>
<polyline clip-path="url(#clip350)" style="stroke:#000000; stroke-linecap:round; stroke-linejoin:round; stroke-width:4; stroke-opacity:1; fill:none" points="86.9921,1505.26 2352.76,1505.26 "/>
<polyline clip-path="url(#clip350)" style="stroke:#000000; stroke-linecap:round; stroke-linejoin:round; stroke-width:4; stroke-opacity:1; fill:none" points="151.118,1505.26 151.118,1486.36 "/>
<polyline clip-path="url(#clip350)" style="stroke:#000000; stroke-linecap:round; stroke-linejoin:round; stroke-width:4; stroke-opacity:1; fill:none" points="685.496,1505.26 685.496,1486.36 "/>
<polyline clip-path="url(#clip350)" style="stroke:#000000; stroke-linecap:round; stroke-linejoin:round; stroke-width:4; stroke-opacity:1; fill:none" points="1219.87,1505.26 1219.87,1486.36 "/>
<polyline clip-path="url(#clip350)" style="stroke:#000000; stroke-linecap:round; stroke-linejoin:round; stroke-width:4; stroke-opacity:1; fill:none" points="1754.25,1505.26 1754.25,1486.36 "/>
<polyline clip-path="url(#clip350)" style="stroke:#000000; stroke-linecap:round; stroke-linejoin:round; stroke-width:4; stroke-opacity:1; fill:none" points="2288.63,1505.26 2288.63,1486.36 "/>
<path clip-path="url(#clip350)" d="M128.502 1536.18 Q124.891 1536.18 123.062 1539.74 Q121.257 1543.28 121.257 1550.41 Q121.257 1557.52 123.062 1561.09 Q124.891 1564.63 128.502 1564.63 Q132.136 1564.63 133.942 1561.09 Q135.77 1557.52 135.77 1550.41 Q135.77 1543.28 133.942 1539.74 Q132.136 1536.18 128.502 1536.18 M128.502 1532.47 Q134.312 1532.47 137.368 1537.08 Q140.446 1541.66 140.446 1550.41 Q140.446 1559.14 137.368 1563.75 Q134.312 1568.33 128.502 1568.33 Q122.692 1568.33 119.613 1563.75 Q116.558 1559.14 116.558 1550.41 Q116.558 1541.66 119.613 1537.08 Q122.692 1532.47 128.502 1532.47 Z" fill="#000000" fill-rule="nonzero" fill-opacity="1" /><path clip-path="url(#clip350)" d="M148.664 1561.78 L153.548 1561.78 L153.548 1567.66 L148.664 1567.66 L148.664 1561.78 Z" fill="#000000" fill-rule="nonzero" fill-opacity="1" /><path clip-path="url(#clip350)" d="M173.733 1536.18 Q170.122 1536.18 168.293 1539.74 Q166.488 1543.28 166.488 1550.41 Q166.488 1557.52 168.293 1561.09 Q170.122 1564.63 173.733 1564.63 Q177.367 1564.63 179.173 1561.09 Q181.002 1557.52 181.002 1550.41 Q181.002 1543.28 179.173 1539.74 Q177.367 1536.18 173.733 1536.18 M173.733 1532.47 Q179.543 1532.47 182.599 1537.08 Q185.678 1541.66 185.678 1550.41 Q185.678 1559.14 182.599 1563.75 Q179.543 1568.33 173.733 1568.33 Q167.923 1568.33 164.844 1563.75 Q161.789 1559.14 161.789 1550.41 Q161.789 1541.66 164.844 1537.08 Q167.923 1532.47 173.733 1532.47 Z" fill="#000000" fill-rule="nonzero" fill-opacity="1" /><path clip-path="url(#clip350)" d="M657.232 1563.72 L673.551 1563.72 L673.551 1567.66 L651.607 1567.66 L651.607 1563.72 Q654.269 1560.97 658.852 1556.34 Q663.459 1551.69 664.639 1550.35 Q666.885 1547.82 667.764 1546.09 Q668.667 1544.33 668.667 1542.64 Q668.667 1539.88 666.723 1538.15 Q664.801 1536.41 661.7 1536.41 Q659.501 1536.41 657.047 1537.17 Q654.616 1537.94 651.839 1539.49 L651.839 1534.77 Q654.663 1533.63 657.116 1533.05 Q659.57 1532.47 661.607 1532.47 Q666.977 1532.47 670.172 1535.16 Q673.366 1537.85 673.366 1542.34 Q673.366 1544.47 672.556 1546.39 Q671.769 1548.28 669.663 1550.88 Q669.084 1551.55 665.982 1554.77 Q662.88 1557.96 657.232 1563.72 Z" fill="#000000" fill-rule="nonzero" fill-opacity="1" /><path clip-path="url(#clip350)" d="M683.366 1561.78 L688.25 1561.78 L688.25 1567.66 L683.366 1567.66 L683.366 1561.78 Z" fill="#000000" fill-rule="nonzero" fill-opacity="1" /><path clip-path="url(#clip350)" d="M698.482 1533.1 L716.838 1533.1 L716.838 1537.04 L702.764 1537.04 L702.764 1545.51 Q703.783 1545.16 704.801 1545 Q705.82 1544.81 706.838 1544.81 Q712.625 1544.81 716.005 1547.98 Q719.384 1551.16 719.384 1556.57 Q719.384 1562.15 715.912 1565.25 Q712.44 1568.33 706.121 1568.33 Q703.945 1568.33 701.676 1567.96 Q699.431 1567.59 697.023 1566.85 L697.023 1562.15 Q699.107 1563.28 701.329 1563.84 Q703.551 1564.4 706.028 1564.4 Q710.033 1564.4 712.371 1562.29 Q714.709 1560.18 714.709 1556.57 Q714.709 1552.96 712.371 1550.85 Q710.033 1548.75 706.028 1548.75 Q704.153 1548.75 702.278 1549.16 Q700.426 1549.58 698.482 1550.46 L698.482 1533.1 Z" fill="#000000" fill-rule="nonzero" fill-opacity="1" /><path clip-path="url(#clip350)" d="M1187.04 1533.1 L1205.39 1533.1 L1205.39 1537.04 L1191.32 1537.04 L1191.32 1545.51 Q1192.34 1545.16 1193.36 1545 Q1194.38 1544.81 1195.39 1544.81 Q1201.18 1544.81 1204.56 1547.98 Q1207.94 1551.16 1207.94 1556.57 Q1207.94 1562.15 1204.47 1565.25 Q1201 1568.33 1194.68 1568.33 Q1192.5 1568.33 1190.23 1567.96 Q1187.99 1567.59 1185.58 1566.85 L1185.58 1562.15 Q1187.66 1563.28 1189.89 1563.84 Q1192.11 1564.4 1194.58 1564.4 Q1198.59 1564.4 1200.93 1562.29 Q1203.27 1560.18 1203.27 1556.57 Q1203.27 1552.96 1200.93 1550.85 Q1198.59 1548.75 1194.58 1548.75 Q1192.71 1548.75 1190.83 1549.16 Q1188.98 1549.58 1187.04 1550.46 L1187.04 1533.1 Z" fill="#000000" fill-rule="nonzero" fill-opacity="1" /><path clip-path="url(#clip350)" d="M1217.15 1561.78 L1222.04 1561.78 L1222.04 1567.66 L1217.15 1567.66 L1217.15 1561.78 Z" fill="#000000" fill-rule="nonzero" fill-opacity="1" /><path clip-path="url(#clip350)" d="M1242.22 1536.18 Q1238.61 1536.18 1236.78 1539.74 Q1234.98 1543.28 1234.98 1550.41 Q1234.98 1557.52 1236.78 1561.09 Q1238.61 1564.63 1242.22 1564.63 Q1245.86 1564.63 1247.66 1561.09 Q1249.49 1557.52 1249.49 1550.41 Q1249.49 1543.28 1247.66 1539.74 Q1245.86 1536.18 1242.22 1536.18 M1242.22 1532.47 Q1248.03 1532.47 1251.09 1537.08 Q1254.17 1541.66 1254.17 1550.41 Q1254.17 1559.14 1251.09 1563.75 Q1248.03 1568.33 1242.22 1568.33 Q1236.41 1568.33 1233.33 1563.75 Q1230.28 1559.14 1230.28 1550.41 Q1230.28 1541.66 1233.33 1537.08 Q1236.41 1532.47 1242.22 1532.47 Z" fill="#000000" fill-rule="nonzero" fill-opacity="1" /><path clip-path="url(#clip350)" d="M1720.57 1533.1 L1742.79 1533.1 L1742.79 1535.09 L1730.25 1567.66 L1725.36 1567.66 L1737.17 1537.04 L1720.57 1537.04 L1720.57 1533.1 Z" fill="#000000" fill-rule="nonzero" fill-opacity="1" /><path clip-path="url(#clip350)" d="M1751.91 1561.78 L1756.8 1561.78 L1756.8 1567.66 L1751.91 1567.66 L1751.91 1561.78 Z" fill="#000000" fill-rule="nonzero" fill-opacity="1" /><path clip-path="url(#clip350)" d="M1767.03 1533.1 L1785.39 1533.1 L1785.39 1537.04 L1771.31 1537.04 L1771.31 1545.51 Q1772.33 1545.16 1773.35 1545 Q1774.37 1544.81 1775.39 1544.81 Q1781.17 1544.81 1784.55 1547.98 Q1787.93 1551.16 1787.93 1556.57 Q1787.93 1562.15 1784.46 1565.25 Q1780.99 1568.33 1774.67 1568.33 Q1772.49 1568.33 1770.22 1567.96 Q1767.98 1567.59 1765.57 1566.85 L1765.57 1562.15 Q1767.65 1563.28 1769.88 1563.84 Q1772.1 1564.4 1774.58 1564.4 Q1778.58 1564.4 1780.92 1562.29 Q1783.26 1560.18 1783.26 1556.57 Q1783.26 1552.96 1780.92 1550.85 Q1778.58 1548.75 1774.58 1548.75 Q1772.7 1548.75 1770.83 1549.16 Q1768.97 1549.58 1767.03 1550.46 L1767.03 1533.1 Z" fill="#000000" fill-rule="nonzero" fill-opacity="1" /><path clip-path="url(#clip350)" d="M2240.7 1563.72 L2248.34 1563.72 L2248.34 1537.36 L2240.03 1539.03 L2240.03 1534.77 L2248.3 1533.1 L2252.97 1533.1 L2252.97 1563.72 L2260.61 1563.72 L2260.61 1567.66 L2240.7 1567.66 L2240.7 1563.72 Z" fill="#000000" fill-rule="nonzero" fill-opacity="1" /><path clip-path="url(#clip350)" d="M2280.05 1536.18 Q2276.44 1536.18 2274.61 1539.74 Q2272.81 1543.28 2272.81 1550.41 Q2272.81 1557.52 2274.61 1561.09 Q2276.44 1564.63 2280.05 1564.63 Q2283.69 1564.63 2285.49 1561.09 Q2287.32 1557.52 2287.32 1550.41 Q2287.32 1543.28 2285.49 1539.74 Q2283.69 1536.18 2280.05 1536.18 M2280.05 1532.47 Q2285.86 1532.47 2288.92 1537.08 Q2292 1541.66 2292 1550.41 Q2292 1559.14 2288.92 1563.75 Q2285.86 1568.33 2280.05 1568.33 Q2274.24 1568.33 2271.17 1563.75 Q2268.11 1559.14 2268.11 1550.41 Q2268.11 1541.66 2271.17 1537.08 Q2274.24 1532.47 2280.05 1532.47 Z" fill="#000000" fill-rule="nonzero" fill-opacity="1" /><path clip-path="url(#clip350)" d="M2300.22 1561.78 L2305.1 1561.78 L2305.1 1567.66 L2300.22 1567.66 L2300.22 1561.78 Z" fill="#000000" fill-rule="nonzero" fill-opacity="1" /><path clip-path="url(#clip350)" d="M2325.29 1536.18 Q2321.67 1536.18 2319.85 1539.74 Q2318.04 1543.28 2318.04 1550.41 Q2318.04 1557.52 2319.85 1561.09 Q2321.67 1564.63 2325.29 1564.63 Q2328.92 1564.63 2330.73 1561.09 Q2332.55 1557.52 2332.55 1550.41 Q2332.55 1543.28 2330.73 1539.74 Q2328.92 1536.18 2325.29 1536.18 M2325.29 1532.47 Q2331.1 1532.47 2334.15 1537.08 Q2337.23 1541.66 2337.23 1550.41 Q2337.23 1559.14 2334.15 1563.75 Q2331.1 1568.33 2325.29 1568.33 Q2319.48 1568.33 2316.4 1563.75 Q2313.34 1559.14 2313.34 1550.41 Q2313.34 1541.66 2316.4 1537.08 Q2319.48 1532.47 2325.29 1532.47 Z" fill="#000000" fill-rule="nonzero" fill-opacity="1" /><path clip-path="url(#clip350)" d="M1236.49 1614.48 L1223.6 1631.82 L1237.16 1650.12 L1230.25 1650.12 L1219.87 1636.12 L1209.5 1650.12 L1202.59 1650.12 L1216.44 1631.47 L1203.77 1614.48 L1210.68 1614.48 L1220.13 1627.18 L1229.58 1614.48 L1236.49 1614.48 Z" fill="#000000" fill-rule="nonzero" fill-opacity="1" /><polyline clip-path="url(#clip352)" style="stroke:#000000; stroke-linecap:round; stroke-linejoin:round; stroke-width:2; stroke-opacity:0.1; fill:none" points="86.9921,1221.29 2352.76,1221.29 "/>
<polyline clip-path="url(#clip352)" style="stroke:#000000; stroke-linecap:round; stroke-linejoin:round; stroke-width:2; stroke-opacity:0.1; fill:none" points="86.9921,922.906 2352.76,922.906 "/>
<polyline clip-path="url(#clip352)" style="stroke:#000000; stroke-linecap:round; stroke-linejoin:round; stroke-width:2; stroke-opacity:0.1; fill:none" points="86.9921,624.523 2352.76,624.523 "/>
<polyline clip-path="url(#clip352)" style="stroke:#000000; stroke-linecap:round; stroke-linejoin:round; stroke-width:2; stroke-opacity:0.1; fill:none" points="86.9921,326.14 2352.76,326.14 "/>
<polyline clip-path="url(#clip350)" style="stroke:#000000; stroke-linecap:round; stroke-linejoin:round; stroke-width:4; stroke-opacity:1; fill:none" points="86.9921,1505.26 86.9921,47.2441 "/>
<polyline clip-path="url(#clip350)" style="stroke:#000000; stroke-linecap:round; stroke-linejoin:round; stroke-width:4; stroke-opacity:1; fill:none" points="86.9921,1221.29 105.89,1221.29 "/>
<polyline clip-path="url(#clip350)" style="stroke:#000000; stroke-linecap:round; stroke-linejoin:round; stroke-width:4; stroke-opacity:1; fill:none" points="86.9921,922.906 105.89,922.906 "/>
<polyline clip-path="url(#clip350)" style="stroke:#000000; stroke-linecap:round; stroke-linejoin:round; stroke-width:4; stroke-opacity:1; fill:none" points="86.9921,624.523 105.89,624.523 "/>
<polyline clip-path="url(#clip350)" style="stroke:#000000; stroke-linecap:round; stroke-linejoin:round; stroke-width:4; stroke-opacity:1; fill:none" points="86.9921,326.14 105.89,326.14 "/>
<path clip-path="url(#clip350)" d="M-10.0724 1221.74 L19.6034 1221.74 L19.6034 1225.68 L-10.0724 1225.68 L-10.0724 1221.74 Z" fill="#000000" fill-rule="nonzero" fill-opacity="1" /><path clip-path="url(#clip350)" d="M43.8625 1219.94 Q47.219 1220.65 49.094 1222.92 Q50.9921 1225.19 50.9921 1228.52 Q50.9921 1233.64 47.4736 1236.44 Q43.9551 1239.24 37.4737 1239.24 Q35.2978 1239.24 32.983 1238.8 Q30.6913 1238.38 28.2376 1237.53 L28.2376 1233.01 Q30.1821 1234.15 32.4969 1234.73 Q34.8117 1235.31 37.3348 1235.31 Q41.7329 1235.31 44.0246 1233.57 Q46.3394 1231.83 46.3394 1228.52 Q46.3394 1225.47 44.1866 1223.75 Q42.057 1222.02 38.2376 1222.02 L34.2098 1222.02 L34.2098 1218.18 L38.4227 1218.18 Q41.8718 1218.18 43.7005 1216.81 Q45.5292 1215.42 45.5292 1212.83 Q45.5292 1210.17 43.6311 1208.75 Q41.7561 1207.32 38.2376 1207.32 Q36.3163 1207.32 34.1172 1207.74 Q31.9182 1208.15 29.2793 1209.03 L29.2793 1204.87 Q31.9413 1204.12 34.2561 1203.75 Q36.5941 1203.38 38.6542 1203.38 Q43.9783 1203.38 47.0801 1205.81 Q50.1819 1208.22 50.1819 1212.34 Q50.1819 1215.21 48.5384 1217.2 Q46.8949 1219.17 43.8625 1219.94 Z" fill="#000000" fill-rule="nonzero" fill-opacity="1" /><path clip-path="url(#clip350)" d="M39.0477 908.705 Q35.4367 908.705 33.608 912.27 Q31.8024 915.811 31.8024 922.941 Q31.8024 930.047 33.608 933.612 Q35.4367 937.154 39.0477 937.154 Q42.682 937.154 44.4875 933.612 Q46.3162 930.047 46.3162 922.941 Q46.3162 915.811 44.4875 912.27 Q42.682 908.705 39.0477 908.705 M39.0477 905.001 Q44.8579 905.001 47.9134 909.608 Q50.9921 914.191 50.9921 922.941 Q50.9921 931.668 47.9134 936.274 Q44.8579 940.857 39.0477 940.857 Q33.2376 940.857 30.1589 936.274 Q27.1034 931.668 27.1034 922.941 Q27.1034 914.191 30.1589 909.608 Q33.2376 905.001 39.0477 905.001 Z" fill="#000000" fill-rule="nonzero" fill-opacity="1" /><path clip-path="url(#clip350)" d="M43.8625 623.169 Q47.219 623.886 49.094 626.155 Q50.9921 628.423 50.9921 631.757 Q50.9921 636.872 47.4736 639.673 Q43.9551 642.474 37.4737 642.474 Q35.2978 642.474 32.983 642.034 Q30.6913 641.618 28.2376 640.761 L28.2376 636.247 Q30.1821 637.382 32.4969 637.96 Q34.8117 638.539 37.3348 638.539 Q41.7329 638.539 44.0246 636.803 Q46.3394 635.067 46.3394 631.757 Q46.3394 628.701 44.1866 626.988 Q42.057 625.252 38.2376 625.252 L34.2098 625.252 L34.2098 621.409 L38.4227 621.409 Q41.8718 621.409 43.7005 620.044 Q45.5292 618.655 45.5292 616.062 Q45.5292 613.4 43.6311 611.988 Q41.7561 610.553 38.2376 610.553 Q36.3163 610.553 34.1172 610.97 Q31.9182 611.386 29.2793 612.266 L29.2793 608.099 Q31.9413 607.359 34.2561 606.988 Q36.5941 606.618 38.6542 606.618 Q43.9783 606.618 47.0801 609.048 Q50.1819 611.456 50.1819 615.576 Q50.1819 618.446 48.5384 620.437 Q46.8949 622.405 43.8625 623.169 Z" fill="#000000" fill-rule="nonzero" fill-opacity="1" /><path clip-path="url(#clip350)" d="M39.4644 324.276 Q36.3163 324.276 34.4644 326.429 Q32.6357 328.582 32.6357 332.332 Q32.6357 336.059 34.4644 338.234 Q36.3163 340.387 39.4644 340.387 Q42.6125 340.387 44.4412 338.234 Q46.2931 336.059 46.2931 332.332 Q46.2931 328.582 44.4412 326.429 Q42.6125 324.276 39.4644 324.276 M48.7468 309.624 L48.7468 313.883 Q46.9875 313.049 45.182 312.61 Q43.3996 312.17 41.6403 312.17 Q37.0107 312.17 34.557 315.295 Q32.1265 318.42 31.7793 324.739 Q33.145 322.725 35.2052 321.661 Q37.2653 320.573 39.7422 320.573 Q44.9505 320.573 47.9597 323.744 Q50.9921 326.892 50.9921 332.332 Q50.9921 337.656 47.844 340.873 Q44.6959 344.091 39.4644 344.091 Q33.4691 344.091 30.2978 339.508 Q27.1265 334.901 27.1265 326.174 Q27.1265 317.98 31.0154 313.119 Q34.9042 308.235 41.4551 308.235 Q43.2144 308.235 44.9968 308.582 Q46.8023 308.929 48.7468 309.624 Z" fill="#000000" fill-rule="nonzero" fill-opacity="1" /><polyline clip-path="url(#clip352)" style="stroke:#009af9; stroke-linecap:round; stroke-linejoin:round; stroke-width:4; stroke-opacity:1; fill:none" points="151.118,922.906 172.709,921.893 194.3,918.874 215.891,913.912 237.482,907.107 259.073,898.601 280.664,888.569 302.255,877.222 323.846,864.8 345.437,851.57 367.028,837.823 388.619,823.866 410.21,810.019 431.801,796.612 453.392,783.976 474.983,772.441 496.574,762.326 518.165,753.941 539.756,747.573 561.347,743.489 582.938,741.926 604.529,743.088 626.12,747.143 647.711,754.218 669.302,764.398 690.894,777.72 712.485,794.176 734.076,813.707 755.667,836.206 777.258,861.516 798.849,889.433 820.44,919.705 842.031,952.035 863.622,986.086 885.213,1021.48 906.804,1057.81 928.395,1094.64 949.986,1131.5 971.577,1167.91 993.168,1203.38 1014.76,1237.4 1036.35,1269.48 1057.94,1299.12 1079.53,1325.84 1101.12,1349.18 1122.71,1368.72 1144.31,1384.04 1165.9,1394.8 1187.49,1400.68 1209.08,1401.41 1230.67,1396.79 1252.26,1386.67 1273.85,1370.96 1295.44,1349.63 1317.03,1322.75 1338.62,1290.42 1360.22,1252.83 1381.81,1210.23 1403.4,1162.95 1424.99,1111.38 1446.58,1055.97 1468.17,997.225 1489.76,935.711 1511.35,872.041 1532.94,806.869 1554.54,740.888 1576.13,674.816 1597.72,609.395 1619.31,545.376 1640.9,483.518 1662.49,424.571 1684.08,369.275 1705.67,318.346 1727.26,272.467 1748.85,232.283 1770.45,198.389 1792.04,171.325 1813.63,151.565 1835.22,139.514 1856.81,135.5 1878.4,139.768 1899.99,152.474 1921.58,173.687 1943.17,203.381 1964.76,241.433 1986.36,287.628 2007.95,341.653 2029.54,403.103 2051.13,471.48 2072.72,546.202 2094.31,626.602 2115.9,711.936 2137.49,801.393 2159.08,894.097 2180.68,989.12 2202.27,1085.49 2223.86,1182.2 2245.45,1278.21 2267.04,1372.49 2288.63,1464 "/>
<polyline clip-path="url(#clip352)" style="stroke:#e26f46; stroke-linecap:round; stroke-linejoin:round; stroke-width:4; stroke-opacity:1; fill:none" points="151.118,934.112 172.709,926.884 194.3,918.637 215.891,909.461 237.482,899.475 259.073,888.817 280.664,877.644 302.255,866.118 323.846,854.406 345.437,842.672 367.028,831.073 388.619,819.755 410.21,808.855 431.801,798.502 453.392,788.816 474.983,779.921 496.574,771.946 518.165,765.031 539.756,759.34 561.347,755.058 582.938,752.399 604.529,751.608 626.12,752.95 647.711,756.712 669.302,763.188 690.894,772.664 712.485,785.404 734.076,801.628 755.667,821.494 777.258,845.08 798.849,872.363 820.44,903.208 842.031,937.356 863.622,974.422 885.213,1013.9 906.804,1055.15 928.395,1097.46 949.986,1140.02 971.577,1181.97 993.168,1222.43 1014.76,1260.55 1036.35,1295.49 1057.94,1326.5 1079.53,1352.96 1101.12,1374.32 1122.71,1390.22 1144.31,1400.42 1165.9,1404.81 1187.49,1403.44 1209.08,1396.46 1230.67,1384.13 1252.26,1366.75 1273.85,1344.69 1295.44,1318.33 1317.03,1288.03 1338.62,1254.13 1360.22,1216.93 1381.81,1176.69 1403.4,1133.61 1424.99,1087.88 1446.58,1039.61 1468.17,988.955 1489.76,936.024 1511.35,880.967 1532.94,823.969 1554.54,765.262 1576.13,705.147 1597.72,644 1619.31,582.281 1640.9,520.544 1662.49,459.438 1684.08,399.714 1705.67,342.218 1727.26,287.894 1748.85,237.772 1770.45,192.953 1792.04,154.589 1813.63,123.85 1835.22,101.888 1856.81,89.7867 1878.4,88.5087 1899.99,98.8341 1921.58,121.301 1943.17,156.149 1964.76,203.268 1986.36,262.166 2007.95,331.948 2029.54,411.319 2051.13,498.614 2072.72,591.842 2094.31,688.76 2115.9,786.963 2137.49,883.984 2159.08,977.402 2180.68,1064.95 2202.27,1144.62 2223.86,1214.73 2245.45,1274.01 2267.04,1321.62 2288.63,1357.21 "/>
<circle clip-path="url(#clip352)" cx="151.118" cy="922.906" r="14.4" fill="#3da44d" fill-rule="evenodd" fill-opacity="1" stroke="#000000" stroke-opacity="1" stroke-width="3.2"/>
<circle clip-path="url(#clip352)" cx="240.181" cy="906.134" r="14.4" fill="#3da44d" fill-rule="evenodd" fill-opacity="1" stroke="#000000" stroke-opacity="1" stroke-width="3.2"/>
<circle clip-path="url(#clip352)" cx="329.244" cy="861.557" r="14.4" fill="#3da44d" fill-rule="evenodd" fill-opacity="1" stroke="#000000" stroke-opacity="1" stroke-width="3.2"/>
<circle clip-path="url(#clip352)" cx="418.307" cy="804.922" r="14.4" fill="#3da44d" fill-rule="evenodd" fill-opacity="1" stroke="#000000" stroke-opacity="1" stroke-width="3.2"/>
<circle clip-path="url(#clip352)" cx="507.37" cy="757.899" r="14.4" fill="#3da44d" fill-rule="evenodd" fill-opacity="1" stroke="#000000" stroke-opacity="1" stroke-width="3.2"/>
<circle clip-path="url(#clip352)" cx="596.433" cy="742.321" r="14.4" fill="#3da44d" fill-rule="evenodd" fill-opacity="1" stroke="#000000" stroke-opacity="1" stroke-width="3.2"/>
<circle clip-path="url(#clip352)" cx="685.496" cy="774.094" r="14.4" fill="#3da44d" fill-rule="evenodd" fill-opacity="1" stroke="#000000" stroke-opacity="1" stroke-width="3.2"/>
<circle clip-path="url(#clip352)" cx="774.559" cy="858.205" r="14.4" fill="#3da44d" fill-rule="evenodd" fill-opacity="1" stroke="#000000" stroke-opacity="1" stroke-width="3.2"/>
<circle clip-path="url(#clip352)" cx="863.622" cy="986.086" r="14.4" fill="#3da44d" fill-rule="evenodd" fill-opacity="1" stroke="#000000" stroke-opacity="1" stroke-width="3.2"/>
<circle clip-path="url(#clip352)" cx="952.685" cy="1136.09" r="14.4" fill="#3da44d" fill-rule="evenodd" fill-opacity="1" stroke="#000000" stroke-opacity="1" stroke-width="3.2"/>
<circle clip-path="url(#clip352)" cx="1041.75" cy="1277.13" r="14.4" fill="#3da44d" fill-rule="evenodd" fill-opacity="1" stroke="#000000" stroke-opacity="1" stroke-width="3.2"/>
<circle clip-path="url(#clip352)" cx="1130.81" cy="1374.98" r="14.4" fill="#3da44d" fill-rule="evenodd" fill-opacity="1" stroke="#000000" stroke-opacity="1" stroke-width="3.2"/>
<circle clip-path="url(#clip352)" cx="1219.87" cy="1399.78" r="14.4" fill="#3da44d" fill-rule="evenodd" fill-opacity="1" stroke="#000000" stroke-opacity="1" stroke-width="3.2"/>
<circle clip-path="url(#clip352)" cx="1308.94" cy="1333.47" r="14.4" fill="#3da44d" fill-rule="evenodd" fill-opacity="1" stroke="#000000" stroke-opacity="1" stroke-width="3.2"/>
<circle clip-path="url(#clip352)" cx="1398" cy="1175.19" r="14.4" fill="#3da44d" fill-rule="evenodd" fill-opacity="1" stroke="#000000" stroke-opacity="1" stroke-width="3.2"/>
<circle clip-path="url(#clip352)" cx="1487.06" cy="943.531" r="14.4" fill="#3da44d" fill-rule="evenodd" fill-opacity="1" stroke="#000000" stroke-opacity="1" stroke-width="3.2"/>
<circle clip-path="url(#clip352)" cx="1576.13" cy="674.816" r="14.4" fill="#3da44d" fill-rule="evenodd" fill-opacity="1" stroke="#000000" stroke-opacity="1" stroke-width="3.2"/>
<circle clip-path="url(#clip352)" cx="1665.19" cy="417.445" r="14.4" fill="#3da44d" fill-rule="evenodd" fill-opacity="1" stroke="#000000" stroke-opacity="1" stroke-width="3.2"/>
<circle clip-path="url(#clip352)" cx="1754.25" cy="223.197" r="14.4" fill="#3da44d" fill-rule="evenodd" fill-opacity="1" stroke="#000000" stroke-opacity="1" stroke-width="3.2"/>
<circle clip-path="url(#clip352)" cx="1843.32" cy="137.052" r="14.4" fill="#3da44d" fill-rule="evenodd" fill-opacity="1" stroke="#000000" stroke-opacity="1" stroke-width="3.2"/>
<circle clip-path="url(#clip352)" cx="1932.38" cy="187.479" r="14.4" fill="#3da44d" fill-rule="evenodd" fill-opacity="1" stroke="#000000" stroke-opacity="1" stroke-width="3.2"/>
<circle clip-path="url(#clip352)" cx="2021.44" cy="379.219" r="14.4" fill="#3da44d" fill-rule="evenodd" fill-opacity="1" stroke="#000000" stroke-opacity="1" stroke-width="3.2"/>
<circle clip-path="url(#clip352)" cx="2110.5" cy="690.183" r="14.4" fill="#3da44d" fill-rule="evenodd" fill-opacity="1" stroke="#000000" stroke-opacity="1" stroke-width="3.2"/>
<circle clip-path="url(#clip352)" cx="2199.57" cy="1073.4" r="14.4" fill="#3da44d" fill-rule="evenodd" fill-opacity="1" stroke="#000000" stroke-opacity="1" stroke-width="3.2"/>
<circle clip-path="url(#clip352)" cx="2288.63" cy="1464" r="14.4" fill="#3da44d" fill-rule="evenodd" fill-opacity="1" stroke="#000000" stroke-opacity="1" stroke-width="3.2"/>
<path clip-path="url(#clip350)" d="M162.518 303.205 L730.574 303.205 L730.574 95.8446 L162.518 95.8446  Z" fill="#ffffff" fill-rule="evenodd" fill-opacity="1"/>
<polyline clip-path="url(#clip350)" style="stroke:#000000; stroke-linecap:round; stroke-linejoin:round; stroke-width:4; stroke-opacity:1; fill:none" points="162.518,303.205 730.574,303.205 730.574,95.8446 162.518,95.8446 162.518,303.205 "/>
<polyline clip-path="url(#clip350)" style="stroke:#009af9; stroke-linecap:round; stroke-linejoin:round; stroke-width:4; stroke-opacity:1; fill:none" points="187.693,147.685 338.744,147.685 "/>
<path clip-path="url(#clip350)" d="M363.919 130.405 L393.155 130.405 L393.155 134.34 L380.886 134.34 L380.886 164.965 L376.187 164.965 L376.187 134.34 L363.919 134.34 L363.919 130.405 Z" fill="#000000" fill-rule="nonzero" fill-opacity="1" /><path clip-path="url(#clip350)" d="M405.539 143.02 Q404.821 142.604 403.965 142.418 Q403.132 142.21 402.113 142.21 Q398.502 142.21 396.558 144.571 Q394.636 146.909 394.636 151.307 L394.636 164.965 L390.354 164.965 L390.354 139.039 L394.636 139.039 L394.636 143.067 Q395.979 140.705 398.132 139.571 Q400.284 138.414 403.363 138.414 Q403.803 138.414 404.335 138.483 Q404.868 138.53 405.516 138.645 L405.539 143.02 Z" fill="#000000" fill-rule="nonzero" fill-opacity="1" /><path clip-path="url(#clip350)" d="M409.567 154.733 L409.567 139.039 L413.826 139.039 L413.826 154.571 Q413.826 158.252 415.261 160.104 Q416.696 161.932 419.567 161.932 Q423.016 161.932 425.006 159.733 Q427.02 157.534 427.02 153.738 L427.02 139.039 L431.28 139.039 L431.28 164.965 L427.02 164.965 L427.02 160.983 Q425.469 163.344 423.409 164.502 Q421.372 165.636 418.664 165.636 Q414.196 165.636 411.882 162.858 Q409.567 160.08 409.567 154.733 M420.284 138.414 L420.284 138.414 Z" fill="#000000" fill-rule="nonzero" fill-opacity="1" /><path clip-path="url(#clip350)" d="M444.266 131.678 L444.266 139.039 L453.039 139.039 L453.039 142.349 L444.266 142.349 L444.266 156.423 Q444.266 159.594 445.122 160.497 Q446.002 161.4 448.664 161.4 L453.039 161.4 L453.039 164.965 L448.664 164.965 Q443.733 164.965 441.858 163.136 Q439.983 161.284 439.983 156.423 L439.983 142.349 L436.858 142.349 L436.858 139.039 L439.983 139.039 L439.983 131.678 L444.266 131.678 Z" fill="#000000" fill-rule="nonzero" fill-opacity="1" /><path clip-path="url(#clip350)" d="M480.191 149.317 L480.191 164.965 L475.932 164.965 L475.932 149.455 Q475.932 145.775 474.497 143.946 Q473.062 142.118 470.191 142.118 Q466.742 142.118 464.752 144.317 Q462.761 146.516 462.761 150.312 L462.761 164.965 L458.478 164.965 L458.478 128.946 L462.761 128.946 L462.761 143.067 Q464.289 140.729 466.349 139.571 Q468.432 138.414 471.14 138.414 Q475.608 138.414 477.9 141.192 Q480.191 143.946 480.191 149.317 Z" fill="#000000" fill-rule="nonzero" fill-opacity="1" /><polyline clip-path="url(#clip350)" style="stroke:#e26f46; stroke-linecap:round; stroke-linejoin:round; stroke-width:4; stroke-opacity:1; fill:none" points="187.693,199.525 338.744,199.525 "/>
<path clip-path="url(#clip350)" d="M379.752 186.851 L373.41 204.05 L386.118 204.05 L379.752 186.851 M377.113 182.245 L382.414 182.245 L395.585 216.805 L390.724 216.805 L387.576 207.939 L371.997 207.939 L368.849 216.805 L363.919 216.805 L377.113 182.245 Z" fill="#000000" fill-rule="nonzero" fill-opacity="1" /><path clip-path="url(#clip350)" d="M404.567 212.916 L404.567 226.666 L400.284 226.666 L400.284 190.879 L404.567 190.879 L404.567 194.814 Q405.909 192.499 407.946 191.388 Q410.007 190.254 412.854 190.254 Q417.576 190.254 420.516 194.004 Q423.479 197.754 423.479 203.865 Q423.479 209.976 420.516 213.726 Q417.576 217.476 412.854 217.476 Q410.007 217.476 407.946 216.365 Q405.909 215.231 404.567 212.916 M419.057 203.865 Q419.057 199.166 417.113 196.504 Q415.192 193.819 411.812 193.819 Q408.432 193.819 406.488 196.504 Q404.567 199.166 404.567 203.865 Q404.567 208.564 406.488 211.249 Q408.432 213.911 411.812 213.911 Q415.192 213.911 417.113 211.249 Q419.057 208.564 419.057 203.865 Z" fill="#000000" fill-rule="nonzero" fill-opacity="1" /><path clip-path="url(#clip350)" d="M434.659 212.916 L434.659 226.666 L430.377 226.666 L430.377 190.879 L434.659 190.879 L434.659 194.814 Q436.002 192.499 438.039 191.388 Q440.099 190.254 442.946 190.254 Q447.668 190.254 450.608 194.004 Q453.571 197.754 453.571 203.865 Q453.571 209.976 450.608 213.726 Q447.668 217.476 442.946 217.476 Q440.099 217.476 438.039 216.365 Q436.002 215.231 434.659 212.916 M449.15 203.865 Q449.15 199.166 447.205 196.504 Q445.284 193.819 441.905 193.819 Q438.525 193.819 436.58 196.504 Q434.659 199.166 434.659 203.865 Q434.659 208.564 436.58 211.249 Q438.525 213.911 441.905 213.911 Q445.284 213.911 447.205 211.249 Q449.15 208.564 449.15 203.865 Z" fill="#000000" fill-rule="nonzero" fill-opacity="1" /><path clip-path="url(#clip350)" d="M475.654 194.86 Q474.937 194.444 474.08 194.258 Q473.247 194.05 472.228 194.05 Q468.617 194.05 466.673 196.411 Q464.752 198.749 464.752 203.147 L464.752 216.805 L460.469 216.805 L460.469 190.879 L464.752 190.879 L464.752 194.907 Q466.094 192.545 468.247 191.411 Q470.4 190.254 473.478 190.254 Q473.918 190.254 474.451 190.323 Q474.983 190.37 475.631 190.485 L475.654 194.86 Z" fill="#000000" fill-rule="nonzero" fill-opacity="1" /><path clip-path="url(#clip350)" d="M489.126 193.865 Q485.701 193.865 483.71 196.55 Q481.719 199.212 481.719 203.865 Q481.719 208.518 483.687 211.203 Q485.677 213.865 489.126 213.865 Q492.529 213.865 494.52 211.18 Q496.511 208.494 496.511 203.865 Q496.511 199.258 494.52 196.573 Q492.529 193.865 489.126 193.865 M489.126 190.254 Q494.682 190.254 497.853 193.865 Q501.025 197.476 501.025 203.865 Q501.025 210.231 497.853 213.865 Q494.682 217.476 489.126 217.476 Q483.548 217.476 480.377 213.865 Q477.228 210.231 477.228 203.865 Q477.228 197.476 480.377 193.865 Q483.548 190.254 489.126 190.254 Z" fill="#000000" fill-rule="nonzero" fill-opacity="1" /><path clip-path="url(#clip350)" d="M528.177 190.879 L518.802 203.495 L528.663 216.805 L523.64 216.805 L516.094 206.619 L508.548 216.805 L503.525 216.805 L513.594 203.24 L504.381 190.879 L509.404 190.879 L516.279 200.115 L523.154 190.879 L528.177 190.879 Z" fill="#000000" fill-rule="nonzero" fill-opacity="1" /><path clip-path="url(#clip350)" d="M534.682 190.879 L538.941 190.879 L538.941 216.805 L534.682 216.805 L534.682 190.879 M534.682 180.786 L538.941 180.786 L538.941 186.18 L534.682 186.18 L534.682 180.786 Z" fill="#000000" fill-rule="nonzero" fill-opacity="1" /><path clip-path="url(#clip350)" d="M568.038 195.856 Q569.635 192.985 571.858 191.62 Q574.08 190.254 577.089 190.254 Q581.14 190.254 583.339 193.101 Q585.538 195.925 585.538 201.157 L585.538 216.805 L581.256 216.805 L581.256 201.295 Q581.256 197.569 579.936 195.763 Q578.617 193.958 575.908 193.958 Q572.598 193.958 570.677 196.157 Q568.756 198.356 568.756 202.152 L568.756 216.805 L564.473 216.805 L564.473 201.295 Q564.473 197.545 563.154 195.763 Q561.834 193.958 559.08 193.958 Q555.816 193.958 553.895 196.18 Q551.973 198.379 551.973 202.152 L551.973 216.805 L547.691 216.805 L547.691 190.879 L551.973 190.879 L551.973 194.907 Q553.432 192.522 555.469 191.388 Q557.506 190.254 560.307 190.254 Q563.131 190.254 565.098 191.689 Q567.089 193.124 568.038 195.856 Z" fill="#000000" fill-rule="nonzero" fill-opacity="1" /><path clip-path="url(#clip350)" d="M605.816 203.772 Q600.654 203.772 598.663 204.953 Q596.672 206.133 596.672 208.981 Q596.672 211.249 598.154 212.592 Q599.658 213.911 602.228 213.911 Q605.769 213.911 607.899 211.411 Q610.052 208.888 610.052 204.721 L610.052 203.772 L605.816 203.772 M614.311 202.013 L614.311 216.805 L610.052 216.805 L610.052 212.869 Q608.593 215.231 606.418 216.365 Q604.242 217.476 601.093 217.476 Q597.112 217.476 594.751 215.254 Q592.413 213.008 592.413 209.258 Q592.413 204.883 595.33 202.661 Q598.269 200.439 604.08 200.439 L610.052 200.439 L610.052 200.022 Q610.052 197.083 608.107 195.485 Q606.186 193.865 602.691 193.865 Q600.468 193.865 598.362 194.397 Q596.256 194.93 594.311 195.995 L594.311 192.059 Q596.649 191.157 598.848 190.717 Q601.047 190.254 603.13 190.254 Q608.755 190.254 611.533 193.17 Q614.311 196.087 614.311 202.013 Z" fill="#000000" fill-rule="nonzero" fill-opacity="1" /><path clip-path="url(#clip350)" d="M627.297 183.518 L627.297 190.879 L636.07 190.879 L636.07 194.189 L627.297 194.189 L627.297 208.263 Q627.297 211.434 628.154 212.337 Q629.033 213.24 631.695 213.24 L636.07 213.24 L636.07 216.805 L631.695 216.805 Q626.765 216.805 624.89 214.976 Q623.015 213.124 623.015 208.263 L623.015 194.189 L619.89 194.189 L619.89 190.879 L623.015 190.879 L623.015 183.518 L627.297 183.518 Z" fill="#000000" fill-rule="nonzero" fill-opacity="1" /><path clip-path="url(#clip350)" d="M641.672 190.879 L645.931 190.879 L645.931 216.805 L641.672 216.805 L641.672 190.879 M641.672 180.786 L645.931 180.786 L645.931 186.18 L641.672 186.18 L641.672 180.786 Z" fill="#000000" fill-rule="nonzero" fill-opacity="1" /><path clip-path="url(#clip350)" d="M664.889 193.865 Q661.464 193.865 659.473 196.55 Q657.482 199.212 657.482 203.865 Q657.482 208.518 659.45 211.203 Q661.44 213.865 664.889 213.865 Q668.292 213.865 670.283 211.18 Q672.274 208.494 672.274 203.865 Q672.274 199.258 670.283 196.573 Q668.292 193.865 664.889 193.865 M664.889 190.254 Q670.445 190.254 673.616 193.865 Q676.788 197.476 676.788 203.865 Q676.788 210.231 673.616 213.865 Q670.445 217.476 664.889 217.476 Q659.311 217.476 656.139 213.865 Q652.991 210.231 652.991 203.865 Q652.991 197.476 656.139 193.865 Q659.311 190.254 664.889 190.254 Z" fill="#000000" fill-rule="nonzero" fill-opacity="1" /><path clip-path="url(#clip350)" d="M705.398 201.157 L705.398 216.805 L701.139 216.805 L701.139 201.295 Q701.139 197.615 699.704 195.786 Q698.269 193.958 695.399 193.958 Q691.949 193.958 689.959 196.157 Q687.968 198.356 687.968 202.152 L687.968 216.805 L683.686 216.805 L683.686 190.879 L687.968 190.879 L687.968 194.907 Q689.496 192.569 691.556 191.411 Q693.639 190.254 696.348 190.254 Q700.815 190.254 703.107 193.032 Q705.398 195.786 705.398 201.157 Z" fill="#000000" fill-rule="nonzero" fill-opacity="1" /><circle clip-path="url(#clip350)" cx="263.218" cy="251.365" r="20.48" fill="#3da44d" fill-rule="evenodd" fill-opacity="1" stroke="#000000" stroke-opacity="1" stroke-width="4.55111"/>
<path clip-path="url(#clip350)" d="M368.595 237.927 L368.595 264.802 L374.243 264.802 Q381.396 264.802 384.706 261.561 Q388.039 258.321 388.039 251.33 Q388.039 244.385 384.706 241.168 Q381.396 237.927 374.243 237.927 L368.595 237.927 M363.919 234.085 L373.525 234.085 Q383.571 234.085 388.271 238.274 Q392.97 242.441 392.97 251.33 Q392.97 260.265 388.247 264.455 Q383.525 268.645 373.525 268.645 L363.919 268.645 L363.919 234.085 Z" fill="#000000" fill-rule="nonzero" fill-opacity="1" /><path clip-path="url(#clip350)" d="M412.02 255.612 Q406.858 255.612 404.868 256.793 Q402.877 257.973 402.877 260.821 Q402.877 263.089 404.358 264.432 Q405.863 265.751 408.432 265.751 Q411.974 265.751 414.104 263.251 Q416.256 260.728 416.256 256.561 L416.256 255.612 L412.02 255.612 M420.516 253.853 L420.516 268.645 L416.256 268.645 L416.256 264.709 Q414.798 267.071 412.622 268.205 Q410.446 269.316 407.298 269.316 Q403.317 269.316 400.956 267.094 Q398.618 264.848 398.618 261.098 Q398.618 256.723 401.534 254.501 Q404.474 252.279 410.284 252.279 L416.256 252.279 L416.256 251.862 Q416.256 248.923 414.312 247.325 Q412.391 245.705 408.895 245.705 Q406.673 245.705 404.567 246.237 Q402.46 246.77 400.516 247.835 L400.516 243.899 Q402.854 242.997 405.053 242.557 Q407.252 242.094 409.335 242.094 Q414.96 242.094 417.738 245.01 Q420.516 247.927 420.516 253.853 Z" fill="#000000" fill-rule="nonzero" fill-opacity="1" /><path clip-path="url(#clip350)" d="M433.502 235.358 L433.502 242.719 L442.275 242.719 L442.275 246.029 L433.502 246.029 L433.502 260.103 Q433.502 263.274 434.358 264.177 Q435.238 265.08 437.9 265.08 L442.275 265.08 L442.275 268.645 L437.9 268.645 Q432.969 268.645 431.094 266.816 Q429.219 264.964 429.219 260.103 L429.219 246.029 L426.094 246.029 L426.094 242.719 L429.219 242.719 L429.219 235.358 L433.502 235.358 Z" fill="#000000" fill-rule="nonzero" fill-opacity="1" /><path clip-path="url(#clip350)" d="M459.659 255.612 Q454.497 255.612 452.506 256.793 Q450.516 257.973 450.516 260.821 Q450.516 263.089 451.997 264.432 Q453.502 265.751 456.071 265.751 Q459.613 265.751 461.742 263.251 Q463.895 260.728 463.895 256.561 L463.895 255.612 L459.659 255.612 M468.154 253.853 L468.154 268.645 L463.895 268.645 L463.895 264.709 Q462.437 267.071 460.261 268.205 Q458.085 269.316 454.937 269.316 Q450.955 269.316 448.594 267.094 Q446.256 264.848 446.256 261.098 Q446.256 256.723 449.173 254.501 Q452.113 252.279 457.923 252.279 L463.895 252.279 L463.895 251.862 Q463.895 248.923 461.951 247.325 Q460.029 245.705 456.534 245.705 Q454.312 245.705 452.205 246.237 Q450.099 246.77 448.154 247.835 L448.154 243.899 Q450.492 242.997 452.691 242.557 Q454.891 242.094 456.974 242.094 Q462.599 242.094 465.377 245.01 Q468.154 247.927 468.154 253.853 Z" fill="#000000" fill-rule="nonzero" fill-opacity="1" /></svg>
